<?xml version="1.0" encoding="utf-8"?>
<!-- Generator: Adobe Illustrator 16.0.0, SVG Export Plug-In . SVG Version: 6.00 Build 0)  -->
<!DOCTYPE svg PUBLIC "-//W3C//DTD SVG 1.1//EN" "http://www.w3.org/Graphics/SVG/1.1/DTD/svg11.dtd">
<svg version="1.1" id="Layer_1" xmlns="http://www.w3.org/2000/svg" xmlns:xlink="http://www.w3.org/1999/xlink" x="0px" y="0px"
	 width="125px" height="125px" viewBox="-12.5 -24 125 125" enable-background="new -12.5 -24 125 125" xml:space="preserve">
<g>
	<path fill="#FFFFFF" d="M50,34.11c-4.84,0-8.779,3.938-8.779,8.779S45.16,51.669,50,51.669c4.842,0,8.779-3.938,8.779-8.779
		S54.842,34.11,50,34.11z"/>
	<path fill="#FFFFFF" d="M74.986,21.279H64.857c0-4.849-3.93-8.779-8.779-8.779H43.922c-4.849,0-8.779,3.93-8.779,8.779h-10.13
		c-4.849,0-8.779,3.93-8.779,8.779v25.662c0,4.849,3.93,8.779,8.779,8.779h49.973c4.85,0,8.779-3.931,8.779-8.779V30.059
		C83.766,25.209,79.836,21.279,74.986,21.279z M50,58.422c-8.565,0-15.532-6.968-15.532-15.532S41.435,27.357,50,27.357
		c8.566,0,15.533,6.968,15.533,15.532S58.566,58.422,50,58.422z"/>
</g>
</svg>
