<?xml version="1.0" encoding="utf-8"?>
<!-- Generator: Adobe Illustrator 16.0.0, SVG Export Plug-In . SVG Version: 6.00 Build 0)  -->
<!DOCTYPE svg PUBLIC "-//W3C//DTD SVG 1.1//EN" "http://www.w3.org/Graphics/SVG/1.1/DTD/svg11.dtd">
<svg version="1.1" id="Livello_1" xmlns="http://www.w3.org/2000/svg" xmlns:xlink="http://www.w3.org/1999/xlink" x="0px" y="0px"
	 width="125px" height="125px" viewBox="-12.5 -12.5 125 125" enable-background="new -12.5 -12.5 125 125" xml:space="preserve">
<path fill="#428BCA" d="M50,5.5c-16.648,0-30.145,13.497-30.145,30.144c0,0.357,0.011,0.721,0.027,1.086
	c0.113,3.167,0.71,6.208,1.726,9.055C28.04,66.924,50,94.5,50,94.5S71.96,66.926,78.392,45.787c1.018-2.846,1.613-5.89,1.727-9.057
	c0.018-0.366,0.026-0.729,0.026-1.086C80.146,18.997,66.649,5.5,50,5.5z M50,50.409c-8.153,0-14.764-6.612-14.764-14.765
	c0-8.152,6.61-14.763,14.764-14.763c8.154,0,14.764,6.61,14.764,14.763C64.765,43.797,58.154,50.409,50,50.409z"/>
</svg>
